<?xml version="1.0" standalone="no"?>
<!DOCTYPE svg PUBLIC "-//W3C//DTD SVG 20010904//EN"
 "http://www.w3.org/TR/2001/REC-SVG-20010904/DTD/svg10.dtd">
<svg version="1.0" xmlns="http://www.w3.org/2000/svg"
 width="138.000000pt" height="138.000000pt" viewBox="0 0 138.000000 138.000000"
 preserveAspectRatio="xMidYMid meet">
<metadata>
Created by potrace 1.11, written by Peter Selinger 2001-2013
</metadata>
<g transform="translate(0.000000,138.000000) scale(0.100000,-0.100000)"
fill="#000000" stroke="none">
<path d="M1351 1214 c0 -11 3 -14 6 -6 3 7 2 16 -1 19 -3 4 -6 -2 -5 -13z"/>
<path d="M875 1145 c-4 -18 -10 -24 -13 -16 -3 9 -9 2 -18 -18 -7 -17 -19 -31
-26 -31 -10 0 -10 2 1 9 9 6 10 11 2 15 -6 4 -11 2 -11 -4 0 -6 -4 -9 -9 -5
-5 3 -13 0 -17 -6 -4 -7 -3 -9 4 -5 6 3 14 1 18 -5 5 -8 -2 -10 -23 -7 -31 4
-37 -11 -18 -41 5 -10 4 -12 -3 -7 -18 11 -14 -5 6 -27 9 -11 12 -17 5 -14 -6
4 -14 3 -18 -3 -9 -15 -38 -12 -32 3 6 15 -20 16 -42 2 -9 -5 -12 -4 -8 2 4 6
-7 10 -26 11 -31 1 -31 0 -9 -12 12 -6 19 -16 15 -21 -4 -4 0 -5 10 -2 11 4
16 3 12 -3 -3 -6 -2 -10 4 -10 5 0 8 -8 6 -17 -1 -10 -8 -17 -15 -15 -15 3
-41 -18 -35 -28 3 -5 0 -12 -6 -16 -8 -5 -9 -3 -4 6 6 10 4 12 -9 7 -10 -4
-27 -7 -37 -7 -11 0 -18 -4 -14 -10 3 -5 12 -7 21 -3 12 4 14 -1 9 -26 -3 -20
-1 -31 6 -31 7 0 9 9 6 21 -4 15 -2 19 9 15 8 -3 14 0 14 6 0 6 3 8 6 5 4 -4
2 -12 -3 -19 -6 -7 -9 -21 -8 -30 2 -10 -2 -15 -9 -12 -7 3 -13 -2 -13 -11 0
-9 6 -14 13 -11 7 3 15 0 17 -7 3 -9 9 -8 22 3 17 14 18 13 12 -3 -4 -11 -3
-16 3 -12 6 3 10 13 10 21 0 8 7 14 16 14 37 0 0 -28 -114 -85 -141 -72 -248
-149 -350 -254 -67 -70 -192 -239 -192 -262 0 -15 17 -10 24 8 27 70 205 279
306 358 67 53 197 129 264 155 14 5 28 4 37 -2 11 -8 10 -9 -3 -4 -11 3 -18 0
-18 -8 0 -7 8 -20 18 -27 15 -12 16 -12 5 2 -11 13 -9 15 18 11 30 -4 30 -4
13 -31 l-17 -26 23 20 23 20 -12 -23 c-14 -26 -7 -44 14 -36 8 4 12 10 9 15
-3 5 8 8 25 7 17 -1 31 -6 31 -11 0 -5 -7 -7 -15 -3 -13 5 -18 -4 -14 -30 0
-4 -4 -10 -9 -13 -5 -3 -13 -17 -17 -30 l-7 -24 23 22 c12 11 26 21 31 21 11
0 31 -41 23 -48 -3 -3 -8 4 -12 16 -3 12 -9 22 -15 22 -13 0 9 -37 29 -48 11
-6 14 -18 11 -36 -4 -21 -3 -24 8 -15 8 6 14 19 14 28 1 14 2 13 11 -2 8 -14
14 -16 25 -6 17 14 19 -2 3 -18 -9 -9 -7 -11 7 -9 12 2 18 11 17 22 -1 17 0
17 10 3 14 -18 38 -14 31 6 -3 7 0 16 5 20 6 3 8 11 5 17 -4 7 -2 8 5 4 6 -4
9 -12 6 -17 -4 -5 -2 -9 4 -9 5 0 12 6 15 13 4 8 5 7 5 -3 -3 -36 1 -39 31
-33 17 3 30 1 30 -4 0 -5 6 -10 14 -10 8 0 12 6 9 14 -4 9 0 11 12 6 15 -5 17
-2 13 15 -5 16 -2 20 13 17 11 -2 25 -7 32 -11 6 -4 1 6 -13 22 -21 24 -22 26
-3 10 17 -14 26 -16 36 -7 8 6 17 7 22 3 4 -4 2 3 -4 16 -6 12 -9 22 -6 22 3
0 0 6 -7 14 -7 8 -20 12 -28 11 -11 -2 -15 4 -14 24 3 38 3 38 20 16 13 -17
16 -18 24 -5 12 19 12 27 0 35 -17 10 -11 25 9 25 17 0 18 -4 11 -31 -10 -34
-5 -53 11 -43 6 3 17 -2 24 -12 13 -17 14 -17 15 -2 0 9 -4 19 -10 23 -5 3 -6
13 -3 22 4 10 2 14 -4 10 -5 -3 -10 0 -10 7 0 9 14 12 49 10 42 -2 46 -1 33
13 -8 8 -15 20 -15 27 0 7 -9 22 -20 34 l-21 22 43 1 c24 0 37 3 30 6 -6 2
-10 9 -6 14 3 5 -2 9 -11 9 -9 0 -13 -4 -10 -10 3 -5 -2 -10 -12 -10 -16 1
-16 3 4 19 15 13 19 21 11 29 -12 12 -41 4 -32 -9 3 -5 0 -9 -5 -9 -6 0 -11 7
-11 15 0 8 -4 15 -9 15 -5 0 -8 -11 -5 -25 3 -19 0 -25 -12 -25 -10 0 -15 3
-11 6 3 3 2 17 -3 30 -5 13 -6 23 -2 23 22 -4 24 3 5 16 -27 19 -53 10 -52
-19 1 -35 25 -91 33 -78 4 7 15 12 25 12 17 0 18 -3 6 -37 -15 -43 -40 -55
-48 -22 -4 15 -11 20 -25 17 -12 -4 -26 2 -37 15 -15 18 -15 19 -1 14 9 -4 16
-2 16 2 0 5 -7 12 -16 15 -21 8 -8 26 19 26 21 0 21 1 -3 17 -46 32 -52 46
-22 62 14 8 32 20 40 27 16 17 29 18 37 3 4 -6 -1 -17 -11 -24 -17 -13 -15
-13 16 -2 19 7 38 15 41 20 3 4 11 -4 18 -17 9 -16 19 -22 29 -19 11 5 13 2 7
-8 -6 -11 -5 -12 6 -1 7 6 24 12 38 12 20 0 23 3 11 9 -8 6 -17 8 -21 5 -4 -2
-10 0 -14 6 -4 6 -11 7 -17 4 -6 -4 -8 -2 -4 4 3 6 0 17 -9 25 -13 13 -13 16
1 27 12 10 14 10 11 -1 -2 -8 -2 -11 0 -6 3 4 9 4 15 1 7 -4 6 -9 -2 -14 -14
-9 -5 -30 13 -29 9 0 8 2 -1 6 -6 2 -9 10 -5 16 10 16 13 37 5 34 -4 -1 -8 3
-10 8 -5 14 -33 28 -62 31 -17 2 -20 0 -11 -5 8 -5 9 -11 3 -15 -11 -7 -24 18
-15 28 4 3 15 6 25 6 10 0 18 4 18 8 0 10 -30 9 -48 -1 -8 -6 -10 -3 -5 10 7
17 6 17 -21 -1 -16 -10 -25 -12 -21 -5 6 9 3 11 -8 6 -9 -3 -19 -1 -23 5 -4 7
-3 8 4 4 7 -4 12 -2 12 4 0 6 5 8 10 5 6 -3 10 0 10 7 0 9 3 9 10 -2 8 -12 10
-12 10 -1 0 8 -8 20 -17 27 -17 12 -17 12 2 11 11 -1 21 5 23 16 3 14 0 16
-21 8 -17 -7 -28 -6 -36 2 -10 9 -12 9 -9 -2 2 -7 -5 -15 -14 -16 -15 -3 -16
0 -7 17 6 11 8 22 5 26 -3 3 -6 0 -6 -7 0 -7 -4 -9 -10 -6 -5 3 -10 0 -10 -8
0 -16 -24 -30 -34 -20 -10 11 -7 35 4 28 6 -4 7 -12 4 -18 -4 -7 -1 -6 7 2 11
10 11 15 2 18 -7 3 -13 12 -13 21 -1 10 -7 4 -15 -13 -11 -24 -14 -26 -14 -10
-1 11 -4 16 -9 10 -9 -13 -27 -13 -39 -1 -4 5 -3 7 2 3 6 -3 11 4 11 15 0 19
-1 19 -18 -2 -10 -12 -22 -19 -28 -15 -5 3 -7 0 -4 -8 3 -8 0 -18 -7 -23 -7
-4 -10 -3 -6 3 4 6 0 16 -8 23 -10 9 -15 9 -15 1 0 -6 -5 -11 -11 -11 -5 0 -8
3 -6 8 3 4 1 16 -3 27 -6 17 -8 16 -15 -10z m82 -80 c0 -8 -4 -15 -9 -15 -10
0 -11 14 -1 23 9 10 10 9 10 -8z m-127 -4 c0 -14 -29 -21 -36 -9 -4 7 -3 8 4
4 7 -4 12 -2 12 3 0 6 5 11 10 11 6 0 10 -4 10 -9z m110 -36 c4 -36 0 -43 -20
-38 -15 4 -19 2 -14 -10 3 -8 1 -18 -5 -22 -7 -4 -8 0 -5 10 4 9 3 15 -2 13
-5 -2 -10 0 -11 5 -2 4 -2 6 0 5 1 -1 12 7 25 17 25 22 29 40 7 32 -21 -9 -28
10 -8 22 20 11 29 1 33 -34z m125 7 c-2 -9 -4 -25 -4 -34 -1 -10 -8 -18 -17
-18 -8 0 -12 4 -9 10 3 5 1 18 -4 27 -9 15 -10 15 -11 2 0 -8 -12 -26 -27 -40
-16 -13 -22 -17 -15 -9 17 20 15 35 -3 20 -13 -11 -14 -10 -9 4 3 9 1 16 -5
16 -6 0 -11 6 -11 14 0 10 14 16 43 18 23 2 49 4 59 5 10 1 15 -4 13 -15z m38
-29 c-3 -7 -6 -13 -8 -13 -2 0 -5 6 -8 13 -3 8 1 14 8 14 7 0 11 -6 8 -14z
m172 -22 c3 -5 2 -12 -3 -15 -5 -3 -9 1 -9 9 0 17 3 19 12 6z m-161 -18 c23
-4 46 -21 46 -35 0 -5 -6 -8 -12 -5 -7 2 -21 0 -30 -4 -18 -10 -35 5 -18 16 5
3 10 11 10 17 0 6 -9 3 -20 -7 -11 -10 -20 -13 -20 -7 0 7 5 12 11 12 8 0 7 6
-2 17 -12 15 -12 16 1 8 8 -5 24 -11 34 -12z m-241 -7 c4 -10 1 -13 -9 -9 -15
6 -19 23 -5 23 5 0 11 -7 14 -14z m347 -11 c0 -2 -5 -7 -12 -11 -7 -4 -8 -3
-4 4 4 7 1 12 -9 12 -10 0 -13 -5 -9 -12 4 -7 3 -8 -4 -4 -6 4 -9 13 -6 21 5
11 11 12 25 4 10 -5 19 -12 19 -14z m-466 -1 c3 -8 2 -12 -3 -9 -5 3 -13 0
-17 -6 -4 -8 -3 -9 4 -5 7 4 12 2 12 -4 0 -6 5 -8 10 -5 6 3 10 2 10 -4 0 -5
8 -12 18 -15 9 -3 23 -15 30 -27 8 -12 9 -18 3 -14 -6 3 -11 1 -11 -4 0 -6 -5
-11 -10 -11 -6 0 -10 6 -9 13 4 28 -2 37 -26 37 -30 0 -31 -7 -7 -33 9 -11 12
-18 7 -15 -6 4 -26 3 -45 -2 -29 -7 -31 -8 -10 -10 l25 -1 -24 -10 c-28 -11
-28 -11 -35 23 -3 18 0 27 7 25 7 -1 13 10 15 26 2 15 8 27 13 27 6 0 7 5 4
10 -3 6 -3 15 0 20 9 15 32 12 39 -6z m246 -4 c0 -6 5 -8 10 -5 12 8 13 -5 1
-24 -10 -16 -31 -6 -31 15 0 14 -2 14 -15 0 -8 -8 -25 -13 -36 -11 -16 3 -19
0 -14 -13 4 -12 3 -14 -5 -6 -12 12 -3 47 10 39 5 -3 11 -2 14 3 7 12 66 14
66 2z m-144 -21 c3 -6 1 -16 -6 -22 -10 -9 -12 -8 -7 6 7 20 -3 22 -23 5 -12
-11 -12 -10 -1 5 15 20 27 22 37 6z m176 -11 c-7 -7 -12 -8 -12 -2 0 14 12 26
19 19 2 -3 -1 -11 -7 -17z m52 -17 c3 -5 -1 -11 -9 -14 -9 -4 -12 -1 -8 9 6
16 10 17 17 5z m-429 -61 c-3 -5 -12 -10 -18 -10 -7 0 -6 4 3 10 19 12 23 12
15 0z m62 -114 c0 -8 -6 -12 -15 -9 -11 5 -11 7 0 14 7 5 13 9 14 9 0 0 1 -6
1 -14z m376 -14 c11 -10 17 -11 17 -4 0 7 4 12 9 12 9 0 -7 -53 -27 -85 -12
-20 -13 -19 -35 7 -25 31 -32 65 -15 85 11 13 21 10 51 -15z m-298 -2 c3 -5 2
-10 -4 -10 -5 0 -13 5 -16 10 -3 6 -2 10 4 10 5 0 13 -4 16 -10z m70 -19 c-3
-11 -1 -22 4 -26 7 -3 8 0 5 9 -5 14 1 18 22 15 4 0 11 5 15 13 5 7 9 8 9 2 0
-6 -3 -14 -7 -18 -11 -11 -10 -30 2 -38 5 -4 1 -8 -10 -8 -22 1 -65 32 -65 48
0 9 11 17 28 21 2 1 1 -8 -3 -18z m88 -53 c-4 -20 -3 -21 7 -5 12 19 30 23 30
6 0 -5 -4 -7 -10 -4 -5 3 -10 1 -10 -4 0 -6 10 -9 23 -7 12 2 21 8 20 13 -3
16 26 11 42 -7 14 -15 13 -19 -5 -40 -11 -12 -17 -26 -14 -31 3 -5 -8 -6 -23
-3 -60 12 -68 10 -67 -13 1 -13 -3 -23 -8 -23 -6 0 -8 6 -5 13 3 7 -3 19 -14
25 -12 8 -16 18 -12 29 6 15 4 16 -9 5 -11 -9 -18 -10 -23 -2 -5 9 14 15 37
11 4 0 15 13 23 29 18 36 25 38 18 8z m-103 -38 c-9 -16 -15 -18 -30 -10 -26
14 -26 23 -1 15 11 -3 22 -1 26 5 11 19 16 10 5 -10z m220 -110 c0 -5 -2 -10
-4 -10 -3 0 -8 5 -11 10 -3 6 -1 10 4 10 6 0 11 -4 11 -10z"/>
<path d="M1290 1094 c-12 -19 -20 -37 -18 -40 7 -6 21 14 36 49 16 38 8 34
-18 -9z"/>
<path d="M740 989 c0 -5 5 -7 10 -4 6 3 10 8 10 11 0 2 -4 4 -10 4 -5 0 -10
-5 -10 -11z"/>
<path d="M646 938 c5 -7 2 -9 -7 -6 -10 4 -15 -1 -15 -13 0 -17 2 -17 18 -3 9
9 21 13 27 9 7 -3 8 0 5 9 -3 9 -13 16 -21 16 -8 0 -11 -5 -7 -12z"/>
<path d="M1116 861 c-11 -4 -15 -10 -10 -13 5 -4 18 0 29 8 20 15 12 17 -19 5z"/>
<path d="M1118 783 c7 -3 16 -2 19 1 4 3 -2 6 -13 5 -11 0 -14 -3 -6 -6z"/>
<path d="M1148 753 c7 -3 16 -2 19 1 4 3 -2 6 -13 5 -11 0 -14 -3 -6 -6z"/>
<path d="M1295 739 c-4 -6 -4 -13 -1 -16 3 -4 6 -1 6 6 0 7 5 9 10 6 6 -3 10
-1 10 4 0 14 -17 14 -25 0z"/>
<path d="M1244 652 c4 -3 14 -7 22 -8 9 -1 13 0 10 4 -4 3 -14 7 -22 8 -9 1
-13 0 -10 -4z"/>
<path d="M1315 619 c-15 -6 -11 -8 18 -8 20 -1 37 1 37 3 0 9 -37 12 -55 5z"/>
</g>
</svg>
